<?xml version="1.0" standalone="no"?><!DOCTYPE svg PUBLIC "-//W3C//DTD SVG 1.1//EN" "http://www.w3.org/Graphics/SVG/1.1/DTD/svg11.dtd"><svg t="1531154097100" class="icon" style="" viewBox="0 0 1024 1024" version="1.1" xmlns="http://www.w3.org/2000/svg" p-id="4685" xmlns:xlink="http://www.w3.org/1999/xlink" width="32" height="32"><defs><style type="text/css"></style></defs><path d="M400.23552 3.4816a230.912 230.912 0 0 1 54.74304 6.6048 269.79328 269.79328 0 0 1 51.22048 17.75104 231.84384 231.84384 0 0 1 42.61888 25.37472 154.0096 154.0096 0 0 1 28.93824 28.42624 223.90784 223.90784 0 0 1 36.36224 71.51616 522.86976 522.86976 0 0 1 16.03584 74.56768 635.32544 635.32544 0 0 1 5.07904 82.11456 38.7072 38.7072 0 0 1 10.56256 13.17376 77.66016 77.66016 0 0 1 5.8624 18.26304c1.68448 9.03168 1.95072 18.26304 0.78336 27.37664a111.90272 111.90272 0 0 1-8.21248 33.97632 70.68672 70.68672 0 0 1-14.07488 19.7888 46.03392 46.03392 0 0 1-17.98656 11.14624 1026.44736 1026.44736 0 0 1-9.37984 32.45568c-3.52256 8.79616-7.04512 17.39776-10.95168 25.8816a70.4256 70.4256 0 0 1-14.08 19.7888 970.0352 970.0352 0 0 0-29.71136 25.88672 63.01696 63.01696 0 0 0-15.25248 36.01408c-1.82784 10.19904-1.92512 25.51808-1.40288 35.87072-8.73984 15.98464-13.57824 28.1856-18.19136 40.00768-7.36768 23.20384-10.14784 31.57504-12.9536 48.14848-2.88256 15.90784-3.58912 28.30336-3.968 33.90464-1.62816 21.60128 0.93696 45.69088 2.63168 59.40224 2.9184 19.52768 8.25344 37.90336 11.32032 47.80544a429.66016 429.66016 0 0 0 9.40032 24.63744c5.248 11.37152 7.65952 16.68096 15.50336 30.63808a599.8592 599.8592 0 0 0 9.95328 15.68256c7.25504 10.76736 13.11744 18.19648 16.81408 22.4512 11.95008 14.26432 19.7632 21.57056 19.7632 21.57056 8.66304 8.20224 17.38752 16.45568 30.34624 26.1376 5.29408 3.78368 10.94656 7.70048 10.94656 7.70048a434.82112 434.82112 0 0 0 18.01216 11.18208c1.78688 1.00864 1.78688 1.00864 3.54816 2.048-26.81344 4.16256-72.62208 9.0368-99.98848 11.4176a2471.8848 2471.8848 0 0 1-78.98624 5.59616c-25.02656 1.36704-46.91968 2.03264-65.30048 2.03264s-39.8848-0.6656-64.51712-2.03264c-24.63744-1.37216-49.664-3.21024-75.85792-5.59616a2881.6896 2881.6896 0 0 1-77.81376-8.13568c-25.80992-3.05152-49.26976-6.25664-70.37952-9.61536-21.11488-3.36384-38.71232-6.76352-53.57056-10.1632a70.56384 70.56384 0 0 1-27.37664-10.1632 89.30304 89.30304 0 0 1-14.85824-49.69984 402.64704 402.64704 0 0 1 4.3008-107.5712 85.4784 85.4784 0 0 1 28.15488-57.32352 183.36256 183.36256 0 0 1 54.35392-31.27808 706.6624 706.6624 0 0 1 64.51712-20.80256 199.86432 199.86432 0 0 0 59.04384-26.3936 139.49952 139.49952 0 0 0 30.49984-25.37984 83.16416 83.16416 0 0 0 15.24736-24.36096 62.94016 62.94016 0 0 0 5.08416-25.37984c0-8.78592-0.39424-18.60096-1.1776-29.44512a56.86272 56.86272 0 0 0-15.25248-37.03296 526.3616 526.3616 0 0 0-29.71136-27.91936 62.54592 62.54592 0 0 1-13.29664-19.7888 1870.37184 1870.37184 0 0 1-10.55744-25.8816 999.89504 999.89504 0 0 1-9.37984-32.45568 42.4704 42.4704 0 0 1-13.29152-7.1168 79.34464 79.34464 0 0 1-12.51328-14.19264 84.8896 84.8896 0 0 1-11.3408-26.3936 71.15776 71.15776 0 0 1-4.3008-31.27808c0.66048-8.30464 2.37056-16.49152 5.08416-24.36608a67.41504 67.41504 0 0 1 12.51328-21.30944 509.34784 509.34784 0 0 1 3.90656-77.1072 474.47552 474.47552 0 0 1 13.69088-69.99552 218.40896 218.40896 0 0 1 30.1056-66.97984 187.74016 187.74016 0 0 1 40.66816-46.1824 202.9568 202.9568 0 0 1 45.7472-27.91936 190.01856 190.01856 0 0 1 46.91968-13.68576 301.07136 301.07136 0 0 1 45.3632-3.5584V3.4816z m0 0" fill="#00FFB3" p-id="4686"></path><path d="M1013.76 748.37504c0 126.7712-102.77376 229.54496-229.54496 229.54496s-229.54496-102.77376-229.54496-229.54496 102.77376-229.54496 229.54496-229.54496S1013.76 621.59872 1013.76 748.37504z m-264.12032-116.4544c-0.09216 1.51552 0 82.06336 0 82.06336h-83.51232c-36.89984 2.176-36.21888 34.39104-36.21888 34.39104s0 32.42496 36.21888 34.39104h83.51232v82.06336c2.57536 36.72064 34.39104 36.21888 34.39104 36.21888s32.60928 0 34.39104-36.21888v-82.06336h80.6144c36.21888-2.06848 36.21888-34.39104 36.21888-34.39104s0-32.10752-36.21888-34.39104h-80.6144v-82.06336c-1.94048-36.21888-34.39104-36.21888-34.39104-36.21888s-32.24576-0.00512-34.39104 36.21888z" fill="#00FFB3" p-id="4687"></path></svg>