<?xml version="1.0" standalone="no"?><!DOCTYPE svg PUBLIC "-//W3C//DTD SVG 1.1//EN" "http://www.w3.org/Graphics/SVG/1.1/DTD/svg11.dtd"><svg t="1531197768009" class="icon" style="" viewBox="0 0 1024 1024" version="1.1" xmlns="http://www.w3.org/2000/svg" p-id="1741" xmlns:xlink="http://www.w3.org/1999/xlink" width="64" height="64"><defs><style type="text/css"></style></defs><path d="M824.535109 64.919569 199.464891 64.919569c-49.318242 0-89.295745 39.977503-89.295745 89.295745l0 714.365964c0 64.650439 53.543474 97.357352 89.295745 89.295745l311.903729-89.295745 313.166489 89.295745c31.222095 7.755638 89.295745-24.707728 89.295745-89.295745L913.830855 154.215314C913.830855 104.898095 873.850282 64.919569 824.535109 64.919569zM735.286436 417.271522l-97.388051 94.931093 22.99062 134.045949c1.263783 7.370875-1.765203 14.821567-7.816013 19.216667-6.051833 4.3951-14.071484 4.976338-20.691251 1.49505l-120.380718-63.286372L391.620305 666.960281c-2.874467 1.5104-6.013971 2.25639-9.140171 2.25639l0 0 0 0 0 0c-4.073782 0-8.127098-1.264806-11.550057-3.751441-6.049786-4.3951-9.079796-11.844769-7.816013-19.215644l22.989597-134.046972-97.390098-94.931093c-5.354961-5.219885-7.28287-13.027711-4.971222-20.140713 2.310625-7.113001 8.459672-12.296047 15.860223-13.371542l134.589324-19.557428L494.380714 242.243183c3.310396-6.705726 10.138918-10.951423 17.618263-10.951423 7.479345 0 14.307867 4.245697 17.618263 10.951423l60.190871 121.958656 134.588301 19.557428c7.401574 1.075495 13.549597 6.258541 15.861246 13.371542S740.64242 412.051637 735.286436 417.271522z" p-id="1742" fill="#FFCE55"></path><path d="M382.480134 669.216671 382.480134 669.216671 382.480134 669.216671Z" p-id="1743" fill="#FFCE55"></path></svg>