<?xml version="1.0" standalone="no"?><!DOCTYPE svg PUBLIC "-//W3C//DTD SVG 1.1//EN" "http://www.w3.org/Graphics/SVG/1.1/DTD/svg11.dtd"><svg t="1531197786670" class="icon" style="" viewBox="0 0 1024 1024" version="1.1" xmlns="http://www.w3.org/2000/svg" p-id="1921" xmlns:xlink="http://www.w3.org/1999/xlink" width="64" height="64"><defs><style type="text/css"></style></defs><path d="M701.056 495.72352c-72.236032-41.716736-196.593664 4.476928-160.536576 91.467776 36.056064 87.04512-2.407424 180.92032-54.668288 226.881536-52.245504 45.980672-35.419136 113.688576 6.562816 133.715968 77.24544 36.835328 140.899328 12.24192 169.348096-105.337856 16.841728-69.581824 70.14912-106.54208 97.093632-142.74048C845.6704 583.368704 701.056 495.72352 701.056 495.72352zM580.450304 435.730432c18.893824-1.557504 32.482304-23.211008 29.718528-56.332288-2.811904-33.119232-19.44064-47.50336-38.284288-45.910016-18.912256 1.593344-32.908288 18.540544-30.147584 51.678208C544.605184 418.304 561.589248 437.341184 580.450304 435.730432zM853.87776 533.302272c-7.411712-3.484672-16.789504 0.813056-23.776256 15.850496-6.972416 15.020032-5.20192 27.032576 2.245632 30.49984 7.446528 3.469312 17.778688-2.955264 24.730624-17.99168C864.069632 546.676736 861.326336 536.769536 853.87776 533.302272zM674.41152 431.855616c12.506112-0.034816 22.626304-15.4624 22.592512-40.620032 0-25.157632-10.048512-37.064704-22.556672-37.064704-12.489728 0-22.60992 11.88864-22.60992 37.028864C651.836416 416.39424 661.955584 431.855616 674.41152 431.855616zM743.409664 453.103616c10.456064 3.591168 23.478272-6.934528 30.978048-28.838912 7.432192-21.849088 2.566144-35.064832-7.88992-38.639616-10.420224-3.572736-22.433792 3.893248-29.863936 25.724928C729.133056 433.234944 733.007872 449.548288 743.409664 453.103616zM827.76576 454.642688c-8.403968-4.653056-19.8144-0.282624-29.263872 16.914432-9.498624 17.24928-8.472576 31.596544-0.032768 36.233216 8.420352 4.670464 21.124096-2.141184 30.642176-19.373056C838.557696 471.202816 836.20352 459.314176 827.76576 454.642688zM332.213248 191.350784c0 0-168.905728 7.643136-148.49024 151.319552 6.315008 44.690432 35.419136 102.720512 16.842752 171.840512-31.314944 116.840448 12.755968 168.890368 98.190336 173.594624 46.442496 2.546688 93.679616-48.7936 69.849088-114.220032-23.867392-65.389568-12.632064-166.198272 60.684288-225.344512C502.656 289.452032 415.612928 189.350912 332.213248 191.350784zM466.848768 196.410368c15.85152 10.437632 39.877632 1.90976 58.26048-25.848832 18.292736-27.722752 14.13632-49.306624-1.683456-59.78112-15.797248-10.437632-37.274624-5.784576-55.620608 21.938176C449.494016 160.478208 451.049472 185.971712 466.848768 196.410368zM193.364992 176.417792c1.060864-16.559104-5.076992-24.804352-13.268992-25.316352-8.209408-0.548864-15.374336 6.846464-16.451584 23.369728-1.026048 16.561152 4.934656 27.140096 13.162496 27.634688C184.962048 202.638336 192.285696 192.943104 193.364992 176.417792zM386.2272 148.040704c10.934272 5.961728 27.22816-2.724864 39.259136-24.840192 12.065792-22.080512 8.897536-37.36576-2.052096-43.363328-10.969088-5.98016-25.566208-0.335872-37.578752 21.707776C373.752832 123.661312 375.258112 142.060544 386.2272 148.040704zM315.441152 133.639168c10.826752 1.875968 22.080512-10.579968 26.025984-33.385472 3.908608-22.733824-3.044352-35.048448-13.90592-36.923392-10.91584-1.840128-21.531648 7.411712-25.494528 30.164992C298.17344 116.283392 304.577536 131.765248 315.441152 133.639168zM240.939008 155.293696c9.66144-0.070656 17.409024-12.153856 17.339392-31.81056-0.106496-19.673088-7.944192-28.94336-17.567744-28.90752-9.695232 0.03584-17.42848 9.376768-17.409024 29.01504C223.40608 143.26272 231.315456 155.312128 240.939008 155.293696z" p-id="1922" fill="#50C1E9"></path></svg>